<svg width="50" height="50" viewBox="0 0 50 50" fill="none" xmlns="http://www.w3.org/2000/svg">
<circle cx="25" cy="25" r="25" fill="#D9D9D9"/>
<g clip-path="url(#clip0_2_17)">
<path d="M21.25 10.5213C21.4326 10.7439 21.5444 11.016 21.5711 11.3027C21.5978 11.5894 21.5383 11.8775 21.4 12.13C20.3154 14.12 19.7492 16.3511 19.7537 18.6175C19.7537 26.1569 25.9 32.2619 33.475 32.2619C34.465 32.2606 35.4231 32.1606 36.3494 31.9619C36.6327 31.9013 36.9276 31.9251 37.1976 32.0304C37.4675 32.1357 37.7007 32.3179 37.8681 32.5544C38.0453 32.8005 38.1357 33.0985 38.1252 33.4015C38.1146 33.7046 38.0038 33.9955 37.81 34.2288C36.3393 36.0351 34.4841 37.4905 32.3796 38.4889C30.2751 39.4873 27.9743 40.0036 25.645 40C17.0012 40 10 33.0363 10 24.4563C10 17.9988 13.9638 12.46 19.6075 10.1125C19.8885 9.99308 20.2008 9.96837 20.4971 10.0421C20.7935 10.1159 21.0577 10.284 21.25 10.5213Z" fill="#FFFF00"/>
</g>
<defs>
<clipPath id="clip0_2_17">
<rect width="30" height="30" fill="white" transform="translate(10 10)"/>
</clipPath>
</defs>
</svg>
