<svg width="50" height="50" viewBox="0 0 50 50" fill="none" xmlns="http://www.w3.org/2000/svg">
<rect width="50" height="50" rx="5" fill="white"/>
<rect x="0.5" y="0.5" width="49" height="49" rx="4.5" stroke="black"/>
<path fill-rule="evenodd" clip-rule="evenodd" d="M7.8125 37.5C7.8125 37.0856 7.97712 36.6882 8.27015 36.3951C8.56317 36.1021 8.9606 35.9375 9.375 35.9375H40.625C41.0394 35.9375 41.4368 36.1021 41.7299 36.3951C42.0229 36.6882 42.1875 37.0856 42.1875 37.5C42.1875 37.9144 42.0229 38.3118 41.7299 38.6049C41.4368 38.8979 41.0394 39.0625 40.625 39.0625H9.375C8.9606 39.0625 8.56317 38.8979 8.27015 38.6049C7.97712 38.3118 7.8125 37.9144 7.8125 37.5ZM7.8125 25C7.8125 24.5856 7.97712 24.1882 8.27015 23.8951C8.56317 23.6021 8.9606 23.4375 9.375 23.4375H40.625C41.0394 23.4375 41.4368 23.6021 41.7299 23.8951C42.0229 24.1882 42.1875 24.5856 42.1875 25C42.1875 25.4144 42.0229 25.8118 41.7299 26.1049C41.4368 26.3979 41.0394 26.5625 40.625 26.5625H9.375C8.9606 26.5625 8.56317 26.3979 8.27015 26.1049C7.97712 25.8118 7.8125 25.4144 7.8125 25ZM7.8125 12.5C7.8125 12.0856 7.97712 11.6882 8.27015 11.3951C8.56317 11.1021 8.9606 10.9375 9.375 10.9375H40.625C41.0394 10.9375 41.4368 11.1021 41.7299 11.3951C42.0229 11.6882 42.1875 12.0856 42.1875 12.5C42.1875 12.9144 42.0229 13.3118 41.7299 13.6049C41.4368 13.8979 41.0394 14.0625 40.625 14.0625H9.375C8.9606 14.0625 8.56317 13.8979 8.27015 13.6049C7.97712 13.3118 7.8125 12.9144 7.8125 12.5Z" fill="black"/>
</svg>
