<svg width="40" height="40" viewBox="0 0 40 40" fill="none" xmlns="http://www.w3.org/2000/svg">
<path d="M0.48872 2.84847C0.333777 2.69353 0.210869 2.50958 0.127014 2.30714C0.0431596 2.1047 1.63259e-09 1.88772 0 1.6686C-1.6326e-09 1.44947 0.0431596 1.2325 0.127014 1.03005C0.210869 0.827609 0.333777 0.643664 0.48872 0.48872C0.643664 0.333777 0.827609 0.210869 1.03005 0.127014C1.2325 0.0431596 1.44947 -1.6326e-09 1.6686 0C1.88772 1.63259e-09 2.1047 0.0431596 2.30714 0.127014C2.50958 0.210869 2.69353 0.333777 2.84847 0.48872L20 17.6436L37.1515 0.48872C37.3065 0.333777 37.4904 0.210869 37.6929 0.127014C37.8953 0.0431596 38.1123 0 38.3314 0C38.5505 0 38.7675 0.0431596 38.9699 0.127014C39.1724 0.210869 39.3563 0.333777 39.5113 0.48872C39.6662 0.643664 39.7891 0.827609 39.873 1.03005C39.9568 1.2325 40 1.44947 40 1.6686C40 1.88772 39.9568 2.1047 39.873 2.30714C39.7891 2.50958 39.6662 2.69353 39.5113 2.84847L22.3564 20L39.5113 37.1515C39.6662 37.3065 39.7891 37.4904 39.873 37.6929C39.9568 37.8953 40 38.1123 40 38.3314C40 38.5505 39.9568 38.7675 39.873 38.9699C39.7891 39.1724 39.6662 39.3563 39.5113 39.5113C39.3563 39.6662 39.1724 39.7891 38.9699 39.873C38.7675 39.9568 38.5505 40 38.3314 40C38.1123 40 37.8953 39.9568 37.6929 39.873C37.4904 39.7891 37.3065 39.6662 37.1515 39.5113L20 22.3564L2.84847 39.5113C2.69353 39.6662 2.50958 39.7891 2.30714 39.873C2.1047 39.9568 1.88772 40 1.6686 40C1.44947 40 1.2325 39.9568 1.03005 39.873C0.827609 39.7891 0.643664 39.6662 0.48872 39.5113C0.333777 39.3563 0.210869 39.1724 0.127014 38.9699C0.0431596 38.7675 0 38.5505 0 38.3314C0 38.1123 0.0431596 37.8953 0.127014 37.6929C0.210869 37.4904 0.333777 37.3065 0.48872 37.1515L17.6436 20L0.48872 2.84847Z" fill="black"/>
</svg>
