<svg width="50" height="50" viewBox="0 0 50 50" fill="none" xmlns="http://www.w3.org/2000/svg">
<circle cx="25" cy="25" r="25" fill="#D9D9D9"/>
<g clip-path="url(#clip0_2_22)">
<path d="M25 32.5C26.9891 32.5 28.8968 31.7098 30.3033 30.3033C31.7098 28.8968 32.5 26.9891 32.5 25C32.5 23.0109 31.7098 21.1032 30.3033 19.6967C28.8968 18.2902 26.9891 17.5 25 17.5C23.0109 17.5 21.1032 18.2902 19.6967 19.6967C18.2902 21.1032 17.5 23.0109 17.5 25C17.5 26.9891 18.2902 28.8968 19.6967 30.3033C21.1032 31.7098 23.0109 32.5 25 32.5ZM25 10C25.2486 10 25.4871 10.0988 25.6629 10.2746C25.8387 10.4504 25.9375 10.6889 25.9375 10.9375V14.6875C25.9375 14.9361 25.8387 15.1746 25.6629 15.3504C25.4871 15.5262 25.2486 15.625 25 15.625C24.7514 15.625 24.5129 15.5262 24.3371 15.3504C24.1613 15.1746 24.0625 14.9361 24.0625 14.6875V10.9375C24.0625 10.6889 24.1613 10.4504 24.3371 10.2746C24.5129 10.0988 24.7514 10 25 10ZM25 34.375C25.2486 34.375 25.4871 34.4738 25.6629 34.6496C25.8387 34.8254 25.9375 35.0639 25.9375 35.3125V39.0625C25.9375 39.3111 25.8387 39.5496 25.6629 39.7254C25.4871 39.9012 25.2486 40 25 40C24.7514 40 24.5129 39.9012 24.3371 39.7254C24.1613 39.5496 24.0625 39.3111 24.0625 39.0625V35.3125C24.0625 35.0639 24.1613 34.8254 24.3371 34.6496C24.5129 34.4738 24.7514 34.375 25 34.375ZM40 25C40 25.2486 39.9012 25.4871 39.7254 25.6629C39.5496 25.8387 39.3111 25.9375 39.0625 25.9375H35.3125C35.0639 25.9375 34.8254 25.8387 34.6496 25.6629C34.4738 25.4871 34.375 25.2486 34.375 25C34.375 24.7514 34.4738 24.5129 34.6496 24.3371C34.8254 24.1613 35.0639 24.0625 35.3125 24.0625H39.0625C39.3111 24.0625 39.5496 24.1613 39.7254 24.3371C39.9012 24.5129 40 24.7514 40 25ZM15.625 25C15.625 25.2486 15.5262 25.4871 15.3504 25.6629C15.1746 25.8387 14.9361 25.9375 14.6875 25.9375H10.9375C10.6889 25.9375 10.4504 25.8387 10.2746 25.6629C10.0988 25.4871 10 25.2486 10 25C10 24.7514 10.0988 24.5129 10.2746 24.3371C10.4504 24.1613 10.6889 24.0625 10.9375 24.0625H14.6875C14.9361 24.0625 15.1746 24.1613 15.3504 24.3371C15.5262 24.5129 15.625 24.7514 15.625 25ZM35.6069 14.3931C35.7826 14.5689 35.8814 14.8073 35.8814 15.0559C35.8814 15.3045 35.7826 15.5429 35.6069 15.7188L32.9556 18.3719C32.8685 18.4589 32.765 18.5279 32.6512 18.575C32.5373 18.6221 32.4153 18.6462 32.2922 18.6461C32.0434 18.646 31.8048 18.547 31.6291 18.3709C31.542 18.2838 31.473 18.1803 31.4259 18.0665C31.3789 17.9526 31.3547 17.8306 31.3548 17.7075C31.355 17.4587 31.454 17.2202 31.63 17.0444L34.2812 14.3931C34.4571 14.2174 34.6955 14.1186 34.9441 14.1186C35.1927 14.1186 35.4311 14.2174 35.6069 14.3931ZM18.37 31.63C18.5458 31.8058 18.6445 32.0442 18.6445 32.2928C18.6445 32.5414 18.5458 32.7798 18.37 32.9556L15.7188 35.6069C15.5419 35.7776 15.3051 35.8721 15.0593 35.87C14.8135 35.8679 14.5784 35.7693 14.4045 35.5955C14.2307 35.4216 14.1321 35.1865 14.13 34.9407C14.1279 34.6949 14.2224 34.4581 14.3931 34.2812L17.0444 31.63C17.2202 31.4542 17.4586 31.3555 17.7072 31.3555C17.9558 31.3555 18.1942 31.4542 18.37 31.63ZM35.6069 35.6069C35.4311 35.7826 35.1927 35.8814 34.9441 35.8814C34.6955 35.8814 34.4571 35.7826 34.2812 35.6069L31.63 32.9556C31.4592 32.7788 31.3647 32.542 31.3669 32.2962C31.369 32.0504 31.4676 31.8152 31.6414 31.6414C31.8152 31.4676 32.0504 31.369 32.2962 31.3669C32.542 31.3647 32.7788 31.4592 32.9556 31.63L35.6069 34.2812C35.7826 34.4571 35.8814 34.6955 35.8814 34.9441C35.8814 35.1927 35.7826 35.4311 35.6069 35.6069ZM18.37 18.3719C18.1942 18.5476 17.9558 18.6464 17.7072 18.6464C17.4586 18.6464 17.2202 18.5476 17.0444 18.3719L14.3931 15.7188C14.3036 15.6323 14.2322 15.5288 14.183 15.4144C14.1339 15.3001 14.108 15.177 14.107 15.0526C14.1059 14.9281 14.1296 14.8046 14.1767 14.6894C14.2239 14.5742 14.2935 14.4695 14.3815 14.3815C14.4695 14.2935 14.5742 14.2239 14.6894 14.1767C14.8046 14.1296 14.9281 14.1059 15.0526 14.107C15.177 14.108 15.3001 14.1339 15.4144 14.183C15.5288 14.2322 15.6323 14.3036 15.7188 14.3931L18.37 17.0444C18.4573 17.1315 18.5266 17.2349 18.5738 17.3488C18.6211 17.4627 18.6454 17.5848 18.6454 17.7081C18.6454 17.8314 18.6211 17.9535 18.5738 18.0674C18.5266 18.1813 18.4573 18.2848 18.37 18.3719Z" fill="#FFF827"/>
</g>
<defs>
<clipPath id="clip0_2_22">
<rect width="30" height="30" fill="white" transform="translate(10 10)"/>
</clipPath>
</defs>
</svg>
